<svg xmlns="http://www.w3.org/2000/svg" viewBox="0 0 240 240" role="img" aria-labelledby="title desc">
  <title id="title">영락의료과학고등학교 교표</title>
  <desc id="desc">녹색 원형 테두리와 중앙 영락 표기가 있는 학교 교표</desc>
  <defs>
    <path id="topArc" d="M 38 128 A 82 82 0 0 1 202 128" />
    <path id="bottomArc" d="M 202 126 A 82 82 0 0 1 38 126" />
    <filter id="softShadow" x="-30%" y="-30%" width="160%" height="160%">
      <feDropShadow dx="0" dy="4" stdDeviation="4" flood-color="#064d2b" flood-opacity="0.24" />
    </filter>
  </defs>
  <circle cx="120" cy="120" r="112" fill="#fff" />
  <circle cx="120" cy="120" r="106" fill="none" stroke="#067232" stroke-width="8" />
  <circle cx="120" cy="120" r="84" fill="none" stroke="#067232" stroke-width="3" />
  <text fill="#063d23" font-family="Arial, sans-serif" font-size="14" font-weight="700" letter-spacing="0.6">
    <textPath href="#topArc" startOffset="50%" text-anchor="middle">YOUNGNAK MEDICAL-SCIENCE HIGH SCHOOL</textPath>
  </text>
  <text fill="#063d23" font-family="'Pretendard', 'Malgun Gothic', sans-serif" font-size="17" font-weight="800" letter-spacing="1.2">
    <textPath href="#bottomArc" startOffset="50%" text-anchor="middle">영락의료과학고등학교</textPath>
  </text>
  <circle cx="32" cy="120" r="5" fill="#067232" />
  <circle cx="208" cy="120" r="5" fill="#067232" />
  <g filter="url(#softShadow)">
    <path d="M120 54 C132 76 154 86 180 86 C165 103 162 126 176 150 C148 146 130 157 120 184 C110 157 92 146 64 150 C78 126 75 103 60 86 C86 86 108 76 120 54Z" fill="#fff" stroke="#07943e" stroke-width="7" stroke-linejoin="round" />
    <path d="M93 93 H147 V147 H93 Z" fill="#078c3c" />
    <path d="M120 69 V171 M69 120 H171" stroke="#078c3c" stroke-width="6" stroke-linecap="round" opacity="0.95" />
    <text x="120" y="116" text-anchor="middle" font-family="'Pretendard', 'Malgun Gothic', sans-serif" font-size="24" font-weight="900" fill="#fff">영</text>
    <text x="120" y="143" text-anchor="middle" font-family="'Pretendard', 'Malgun Gothic', sans-serif" font-size="24" font-weight="900" fill="#fff">락</text>
  </g>
</svg>
